<?xml version="1.0" encoding="utf-8"?>
<!-- Generator: Adobe Illustrator 23.0.1, SVG Export Plug-In . SVG Version: 6.00 Build 0)  -->
<svg version="1.1" id="Layer_1" xmlns="http://www.w3.org/2000/svg" xmlns:xlink="http://www.w3.org/1999/xlink" x="0px" y="0px"
	 viewBox="0 0 92 92" style="enable-background:new 0 0 92 92;" xml:space="preserve">
<style type="text/css">
	.st0{clip-path:url(#SVGID_2_);}
</style>
<g>
	<defs>
		<path id="SVGID_1_" d="M62.4,62.4c-0.9,0.9-2,1.3-3.1,1.3c-1.1,0-2.2-0.4-3.1-1.3L46,52.2L35.9,62.4c-0.9,0.9-2,1.3-3.1,1.3
			c-1.1,0-2.3-0.4-3.1-1.3c-1.7-1.7-1.7-4.5,0-6.2L39.8,46L29.6,35.9c-1.7-1.7-1.7-4.5,0-6.2c1.7-1.7,4.5-1.7,6.2,0L46,39.8
			l10.1-10.1c1.7-1.7,4.5-1.7,6.2,0c1.7,1.7,1.7,4.5,0,6.2L52.2,46l10.1,10.1C64.1,57.8,64.1,60.6,62.4,62.4z M46,0.9
			C21.2,0.9,0.9,21.2,0.9,46S21.2,91.1,46,91.1c24.8,0,45.1-20.2,45.1-45.1S70.8,0.9,46,0.9z"/>
	</defs>
	<clipPath id="SVGID_2_">
		<use xlink:href="#SVGID_1_"  style="overflow:visible;"/>
	</clipPath>
	<rect fill="#999ea6" x="-4.1" y="-4.1" class="st0" width="100.1" height="100.1"/>
</g>
</svg>
