<?xml version="1.0" encoding="utf-8"?>
<!-- Generator: Adobe Illustrator 23.0.1, SVG Export Plug-In . SVG Version: 6.00 Build 0)  -->
<svg version="1.1" id="Layer_1" xmlns="http://www.w3.org/2000/svg" xmlns:xlink="http://www.w3.org/1999/xlink" x="0px" y="0px"
	 viewBox="0 0 14.5 14.9" style="enable-background:new 0 0 14.5 14.9;" xml:space="preserve">
<style type="text/css">
	.st0{fill-rule:evenodd;clip-rule:evenodd;fill:#ffffff}
</style>
<path id="close" class="st0" d="M8.4,7.5l5.9,5.9c0.3,0.3,0.3,0.7,0,1c-0.3,0.3-0.7,0.3-1,0L7.4,8.5l-6.3,6.3c-0.3,0.3-0.7,0.3-1,0
	c0,0,0,0,0,0c-0.3-0.3-0.3-0.7,0-1c0,0,0,0,0,0l6.3-6.3L0.2,1.2c-0.3-0.3-0.3-0.7,0-1c0,0,0,0,0,0c0.3-0.3,0.7-0.3,1,0c0,0,0,0,0,0
	l6.3,6.3l5.9-5.9c0.3-0.3,0.7-0.3,1,0c0.3,0.3,0.3,0.7,0,1L8.4,7.5z"/>
</svg>
