<?xml version="1.0" encoding="utf-8"?>
<!-- Generator: Adobe Illustrator 23.0.1, SVG Export Plug-In . SVG Version: 6.00 Build 0)  -->
<svg version="1.1" id="compass" xmlns="http://www.w3.org/2000/svg" xmlns:xlink="http://www.w3.org/1999/xlink" x="0px" y="0px"
	 viewBox="0 0 60 60" style="enable-background:new 0 0 60 60;" xml:space="preserve">
<style type="text/css">
	.st0{fill:none;}
	.st1{fill:#B1B1B1;}
	.st2{fill:#58BAE7;}
</style>
<g>
	<path class="st0" d="M33.5,22.9c3.5-1.1,4.8,0,3.5,3.5l5.3-8.8L33.5,22.9z"/>
	<path class="st0" d="M30,22.9c-3.9,0-7.1,3.2-7.1,7.1s3.2,7.1,7.1,7.1v0c3.9,0,7-3.2,7.1-7.1C37.1,26.1,33.9,22.9,30,22.9z"/>
	<path class="st1" d="M58,28c-1.1,0-2,0.9-2,2c0,1.1,0.9,2,2,2s2-0.9,2-2S59.1,28,58,28z"/>
	<path class="st1" d="M30,56c-1.1,0-2,0.9-2,2c0,1.1,0.9,2,2,2s2-0.9,2-2S31.1,56,30,56z"/>
	<path class="st1" d="M30,4c1.1,0,2-0.9,2-2s-0.9-2-2-2c-1.1,0-2,0.9-2,2C28,3.1,28.9,4,30,4z"/>
	<path class="st1" d="M2,28c-1.1,0-2,0.9-2,2c0,1.1,0.9,2,2,2s2-0.9,2-2S3.1,28,2,28z"/>
	<path class="st2" d="M30,22.6L15,15l7.4,14.8L15,45l15-7.4L45,45l-7.4-15L45,15L30,22.6z M30,37.1L30,37.1c-3.9,0-7.1-3.2-7.1-7.1
		s3.2-7.1,7.1-7.1c3.9,0,7.1,3.2,7.1,7.1C37,33.9,33.9,37,30,37.1z M37.1,26.5c1.2-3.5,0-4.6-3.5-3.5l8.8-5.3L37.1,26.5z"/>
</g>
</svg>
