<svg width="90px" height="108px" viewBox="0 0 90 108" version="1.1" xmlns="http://www.w3.org/2000/svg" xmlns:xlink="http://www.w3.org/1999/xlink">
    <g id="Page-1" stroke="none" stroke-width="1" fill="none" fill-rule="evenodd">
        <g id="em-big-logo" transform="translate(0.049637, 0.024819)">
            <polygon id="Path" fill="#D36B0E" points="31.9664564 62.7416164 35.0191538 62.7416164 35.0191538 38.1463071 31.9664564 40.3551694"></polygon>
            <polygon id="Path" fill="#D36B0E" points="23.3543754 62.7416164 28.7896657 62.7416164 28.7896657 42.6633064 23.3543754 46.6342948"></polygon>
            <path d="M32.8599288,39.6850651 L35.9126261,37.4762028 L35.9126261,15.8591348 L32.8599288,18.0679971 L32.8599288,39.6850651 Z M45.1451741,65.1490281 L48.5205143,65.1490281 L48.5205143,62.7416164 L45.1451741,62.7416164 L45.1451741,65.1490281 Z M68.6732803,65.1490281 L69.541934,65.1490281 L69.541934,62.7416164 L68.6732803,62.7416164 L68.6732803,65.1490281 Z M60.9794903,65.1490281 L62.3941549,65.1490281 L62.3941549,62.7416164 L60.9794903,62.7416164 L60.9794903,65.1490281 Z M52.8886015,65.1490281 L55.618656,65.1490281 L55.618656,62.7416164 L52.8886015,62.7416164 L52.8886015,65.1490281 Z M37.1783787,65.1490281 L43.5567788,65.1490281 L43.5567788,62.7416164 L37.1783787,62.7416164 L37.1783787,65.1490281 Z M24.2230291,65.1490281 L29.6831381,65.1490281 L29.6831381,62.7416164 L24.2230291,62.7416164 L24.2230291,65.1490281 Z M32.8599288,65.1490281 L35.9126261,65.1490281 L35.9126261,62.7416164 L32.8599288,62.7416164 L32.8599288,65.1490281 Z M60.9794903,38.8908674 L62.3941549,39.9084332 L62.3941549,18.2913652 L60.9794903,17.2737994 L60.9794903,38.8908674 Z M68.6732803,22.8828205 L68.6732803,44.4998885 L69.541934,45.1451741 L69.541934,23.5281061 L68.6732803,22.8828205 Z M45.1451741,27.3998198 L48.5205143,29.8568689 L48.5205143,8.23980089 L45.1451741,5.78275183 L45.1451741,27.3998198 Z M37.1783787,21.617068 L43.5567788,26.2581607 L43.5567788,4.64109267 L37.1783787,0 L37.1783787,21.617068 Z M52.8886015,33.0336596 L55.618656,35.0191538 L55.618656,13.4020858 L52.8886015,11.4165916 L52.8886015,33.0336596 Z M24.2230291,45.9890092 L29.6831381,42.0180208 L29.6831381,20.4009528 L24.2230291,24.3719412 L24.2230291,45.9890092 Z" id="Shape" fill="#446183" fill-rule="nonzero"></path>
            <polygon id="Path" fill="#B8C935" points="53.7820739 62.7416164 56.536947 62.7416164 56.536947 35.6644394 53.7820739 33.6789452"></polygon>
            <polygon id="Path" fill="#B8C935" points="46.0386465 62.7416164 49.4139866 62.7416164 49.4139866 30.5021545 46.0386465 28.0451054"></polygon>
            <polygon id="Path" fill="#B8C935" points="61.8729627 62.7416164 63.2876273 62.7416164 63.2876273 40.5785375 61.8729627 39.5609717"></polygon>
            <polygon id="Path" fill="#B8C935" points="38.0966698 62.7416164 44.4750698 62.7416164 44.4750698 26.9034463 38.0966698 22.2623536"></polygon>
            <polygon id="Path" fill="#B8C935" points="69.5667527 62.7416164 70.460225 62.7416164 70.460225 45.7904597 69.5667527 45.1451741"></polygon>
            <path d="M22.7835458,99.8951764 C22.6842711,97.5870394 22.535359,94.8321662 22.5601777,92.3999358 L22.4857217,92.3999358 C21.9148921,94.5839794 21.1703318,96.9913911 20.3761341,99.2250721 L17.7949917,106.943681 L15.2883053,106.943681 L12.9057122,99.3491655 C12.2107893,97.0906659 11.5903223,94.6584355 11.1187675,92.3999358 L11.0691301,92.3999358 C10.9946741,94.7577102 10.8953994,97.5622207 10.7464873,99.9944511 L10.3493885,107.14223 L7.32150982,107.14223 L8.51280634,89.3472385 L12.7816188,89.3472385 L15.1145745,96.4950176 C15.7598601,98.5797865 16.305871,100.689374 16.7526072,102.674868 L16.8270633,102.674868 C17.2986181,100.739011 17.9190851,98.5549678 18.5891893,96.4701989 L21.0462384,89.3472385 L25.2654136,89.3472385 L26.2829793,107.14223 L23.1061886,107.14223 L22.7587271,99.8951764 L22.7835458,99.8951764 Z M89.2479638,79.692773 L85.8726237,79.692773 L85.8726237,82.3235528 L89.6698813,82.3235528 L89.6698813,83.6637614 L84.234591,83.6637614 L84.234591,74.6794002 L89.4713319,74.6794002 L89.4713319,76.0196088 L85.8726237,76.0196088 L85.8726237,78.3277458 L89.2479638,78.3277458 L89.2479638,79.6679543 L89.2479638,79.692773 Z M77.6080041,74.7042189 L77.6080041,78.5511139 L77.8810096,78.5511139 L80.6358828,74.7042189 L82.621377,74.7042189 L79.3701302,78.7496633 C80.6855201,78.9978501 81.231531,79.8416851 81.6286299,80.9833442 C81.9512727,81.926454 82.2490968,82.844745 82.6461956,83.6885801 L80.8840695,83.6885801 C80.5862454,83.0681131 80.3628773,82.3235528 80.1395092,81.6534485 C79.7672291,80.5614267 79.2956742,79.7672291 78.0299216,79.7672291 L77.6328228,79.7672291 L77.6328228,83.6885801 L76.0196088,83.6885801 L76.0196088,74.7042189 L77.6328228,74.7042189 L77.6080041,74.7042189 Z M69.3930219,74.7042189 L69.3930219,77.9306469 C69.6660274,77.8810096 70.1624009,77.8561909 70.5098624,77.8561909 C72.3960819,77.8561909 74.0341146,78.7248446 74.0341146,80.7351575 C74.0341146,81.5789925 73.7611091,82.2242781 73.3391916,82.6710143 C72.5449939,83.4900307 71.1303293,83.7878548 69.8149394,83.7878548 C68.8966484,83.7878548 68.2017254,83.7133988 67.7798079,83.6637614 L67.7798079,74.7042189 L69.4178406,74.7042189 L69.3930219,74.7042189 Z M69.3930219,82.4724649 C69.6412087,82.5221022 69.8893955,82.5221022 70.2368569,82.5221022 C71.3536974,82.5221022 72.2968072,81.9760913 72.2968072,80.8096135 C72.2968072,79.618317 71.3536974,79.1467621 70.2368569,79.1467621 C69.9390328,79.1467621 69.6412087,79.1715808 69.3930219,79.1963995 L69.3930219,82.4724649 Z M65.8439511,83.4155746 C65.4468522,83.614124 64.6030172,83.8374921 63.5358141,83.8374921 C60.6816662,83.8374921 58.9443587,82.0257287 58.9443587,79.2956742 C58.9443587,76.3422516 61.004309,74.5553068 63.7343635,74.5553068 C64.8263853,74.5553068 65.5957643,74.7786749 65.9184071,74.9524056 L65.5709456,76.2677955 C65.1490281,76.0692461 64.5533798,75.9203341 63.8088195,75.9203341 C61.9722374,75.9203341 60.6568475,77.0619932 60.6568475,79.2212182 C60.6568475,81.2067123 61.8233253,82.4724649 63.7840008,82.4724649 C64.4541051,82.4724649 65.1490281,82.3483715 65.5709456,82.1498221 L65.8439511,83.4403933 L65.8439511,83.4155746 Z M51.6476676,74.7042189 L51.6476676,77.8810096 C51.6476676,79.2956742 51.5980302,80.6358828 51.5483929,81.8271793 L51.5732116,81.851998 C52.0447664,80.8344322 52.615596,79.7672291 53.2112443,78.7496633 L55.5938373,74.7290375 L57.2566887,74.7290375 L57.2566887,83.7133988 L55.7427494,83.7133988 L55.7427494,80.5366081 C55.7427494,79.1219434 55.767568,77.9802843 55.8668428,76.8138064 L55.8420241,76.8138064 C55.4201066,77.8313722 54.8244583,78.9730314 54.2536287,79.9161411 L51.9951291,83.7133988 L50.158547,83.7133988 L50.158547,74.7290375 L51.6724863,74.7290375 L51.6476676,74.7042189 Z M52.9878762,72.7187247 C53.0126949,73.1902796 53.1616069,73.537741 53.6827991,73.537741 C54.1791727,73.537741 54.3280848,73.2150982 54.3777221,72.7187247 L55.5193813,72.7187247 C55.4449252,73.7362905 54.7748209,74.2574827 53.6331618,74.2574827 C52.4915026,74.2574827 51.8958544,73.7114718 51.8213983,72.7187247 L52.9878762,72.7187247 Z M47.7511353,79.692773 L44.3757951,79.692773 L44.3757951,82.3235528 L48.1730528,82.3235528 L48.1730528,83.6637614 L42.7377624,83.6637614 L42.7377624,74.6794002 L47.9745033,74.6794002 L47.9745033,76.0196088 L44.3757951,76.0196088 L44.3757951,78.3277458 L47.7511353,78.3277458 L47.7511353,79.6679543 L47.7511353,79.692773 Z M40.305532,74.7042189 L40.305532,83.6885801 L38.6674993,83.6885801 L38.6674993,76.0444274 L35.0439724,76.0444274 L35.0439724,83.6885801 L33.4059397,83.6885801 L33.4059397,74.7042189 L40.305532,74.7042189 Z M31.4452642,79.0971248 C31.4452642,82.1001847 29.6086821,83.8374921 27.1268144,83.8374921 C24.5953093,83.8374921 22.9820952,81.9016353 22.9820952,79.2708555 C22.9820952,76.5159823 24.7194027,74.5553068 27.2509077,74.5553068 C29.8816875,74.5553068 31.4204455,76.540801 31.4204455,79.0971248 L31.4452642,79.0971248 Z M24.7442213,79.2212182 C24.7442213,81.0578003 25.6625124,82.5221022 27.2260891,82.5221022 C28.8144844,82.5221022 29.7079568,81.0329816 29.7079568,79.1715808 C29.7079568,77.4839107 28.8641218,75.8706967 27.2260891,75.8706967 C25.5880564,75.8706967 24.7442213,77.384636 24.7442213,79.2460368 L24.7442213,79.2212182 Z M15.5613107,74.8034936 C16.156959,74.7042189 16.9511566,74.6297628 18.0679971,74.6297628 C19.2592936,74.6297628 20.152766,74.8779496 20.7235956,75.3743232 C21.2447878,75.8210594 21.5922493,76.5159823 21.5922493,77.3598173 C21.5922493,78.2036524 21.3192439,78.923394 20.8228703,79.3949489 C20.1775847,80.0402345 19.1352002,80.3628773 17.9935411,80.3628773 C17.695717,80.3628773 17.3978928,80.3380586 17.1993434,80.31324 L17.1993434,83.6885801 L15.5613107,83.6885801 L15.5613107,74.8283123 L15.5613107,74.8034936 Z M17.1993434,78.9978501 C17.3978928,79.0474874 17.6708983,79.0723061 17.9935411,79.0723061 C19.2096563,79.0723061 19.9790353,78.4766578 19.9790353,77.4094547 C19.9790353,76.4167076 19.2841123,75.8706967 18.1424532,75.8706967 C17.695717,75.8706967 17.3730742,75.9203341 17.1993434,75.9451527 L17.1993434,78.9730314 L17.1993434,78.9978501 Z M7.37114718,74.8034936 C7.8923394,74.7042189 8.83544914,74.6297628 9.7537402,74.6297628 C10.9698554,74.6297628 11.7144157,74.7786749 12.3348827,75.2005924 C12.9057122,75.5232352 13.2779924,76.1188835 13.2779924,76.8882625 C13.2779924,77.7072788 12.7568002,78.4766578 11.7888717,78.8241193 L11.7888717,78.848938 C12.7319815,79.0971248 13.6006352,79.8416851 13.6006352,81.082619 C13.6006352,81.8768166 13.2531737,82.4972836 12.7319815,82.9440198 C12.0866959,83.5148493 11.0443114,83.7878548 9.40627872,83.7878548 C8.48798766,83.7878548 7.81788337,83.7133988 7.39596586,83.6637614 L7.39596586,74.8283123 L7.37114718,74.8034936 Z M9.00917988,78.3525644 L9.85301491,78.3525644 C10.9946741,78.3525644 11.615141,77.8065535 11.615141,77.0619932 C11.615141,76.2181582 10.9698554,75.845878 9.92747095,75.845878 C9.45591608,75.845878 9.15809195,75.8706967 8.98436121,75.9203341 L8.98436121,78.3773831 L9.00917988,78.3525644 Z M9.00917988,82.4972836 C9.23254798,82.5469209 9.50555343,82.5469209 9.87783359,82.5469209 C10.920218,82.5469209 11.8633278,82.1498221 11.8633278,81.0329816 C11.8633278,79.9905971 10.9450367,79.5686796 9.82819624,79.5686796 L9.00917988,79.5686796 L9.00917988,82.4972836 Z M5.01337283,79.692773 L1.63803271,79.692773 L1.63803271,82.3235528 L5.43529034,82.3235528 L5.43529034,83.6637614 L0,83.6637614 L0,74.6794002 L5.23674092,74.6794002 L5.23674092,76.0196088 L1.63803271,76.0196088 L1.63803271,78.3277458 L5.01337283,78.3277458 L5.01337283,79.6679543 L5.01337283,79.692773 Z M85.7485303,98.0834129 C85.7485303,104.039896 82.1250034,107.464873 77.235724,107.464873 C72.2223511,107.464873 69.0455604,103.642797 69.0455604,98.4060558 C69.0455604,92.9459467 72.4705379,89.0990517 77.4839107,89.0990517 C82.695833,89.0990517 85.7485303,93.0204028 85.7485303,98.1082316 L85.7485303,98.0834129 Z M72.4705379,98.3564184 C72.4705379,101.979945 74.2823014,104.883731 77.4094547,104.883731 C80.5614267,104.883731 82.3235528,101.955127 82.3235528,98.232325 C82.3235528,94.8818036 80.6607014,91.6801942 77.4094547,91.6801942 C74.1830266,91.6801942 72.4705379,94.6832542 72.4705379,98.3564184 Z M59.3662763,92.1021117 L54.3032661,92.1021117 L54.3032661,89.3720572 L67.7301705,89.3720572 L67.7301705,92.1021117 L62.617523,92.1021117 L62.617523,107.167049 L59.3662763,107.167049 L59.3662763,92.1021117 Z M51.4491182,106.645857 C50.6797392,107.042955 48.9920691,107.464873 46.8576629,107.464873 C41.1990044,107.464873 37.774027,103.890983 37.774027,98.4805118 C37.774027,92.6233039 41.84429,89.0742331 47.2795804,89.0742331 C49.4139866,89.0742331 50.9527446,89.5209693 51.5980302,89.8684307 L50.8782886,92.4495732 C50.0344536,92.077293 48.8679757,91.7546502 47.4036738,91.7546502 C43.7801469,91.7546502 41.1741857,94.0131499 41.1741857,98.306781 C41.1741857,102.203313 43.4823227,104.71 47.3788551,104.71 C48.694245,104.71 50.0592722,104.436994 50.927926,104.039896 L51.4491182,106.596219 L51.4491182,106.645857 Z M33.927132,89.3720572 L33.927132,107.167049 L30.6758852,107.167049 L30.6758852,89.3720572 L33.927132,89.3720572 Z" id="Shape" fill="#446183" fill-rule="nonzero"></path>
        </g>
    </g>
</svg>