<?xml version="1.0" encoding="UTF-8"?>
<svg width="1066px" height="786px" viewBox="0 0 1066 786" version="1.1" xmlns="http://www.w3.org/2000/svg" xmlns:xlink="http://www.w3.org/1999/xlink">
    <!-- Generator: Sketch 52.1 (67048) - http://www.bohemiancoding.com/sketch -->
    <title>house7</title>
    <desc>Created with Sketch.</desc>
    <g id="Page-1" stroke="none" stroke-width="1" fill="none" fill-rule="evenodd">
        <g id="Artboard-Copy-5" fill="#000000">
            <g id="house7" transform="translate(0.000000, -2.000000)">
                <polygon id="Path" points="246.9487 412.920128 246.9487 458.351438 251.741371 495.958466 311.775887 496.210863 311.523641 692.322684 321.865721 709.990415 321.613475 789.242812 159.419385 788.990415 141.762175 709.738019 99.38487 709.738019 24.4678487 709.485623 0.756737589 717.057508 1.26122931 92.8817891 2.77470449 74.9616613 160.176123 76.7284345 177.581087 18.6773163 177.328842 364.460064 229.291489 389.952077"></polygon>
                <polygon id="Path" points="212.895508 1.26198083 350.369504 1.26198083 488.852482 1.514377 479.771631 76.9808307 471.699764 365.974441 324.38818 389.952077 272.930024 389.952077 177.328842 364.460064 177.581087 94.3961661 177.581087 18.6773163"></polygon>
                <polygon id="Path" points="764.809456 1.76677316 627.335461 1.76677316 488.852482 1.514377 497.428842 76.9808307 504.996217 365.974441 652.307801 390.456869 703.765957 390.456869 799.619385 365.217252 799.871631 94.9009585 799.871631 19.4345048"></polygon>
                <polygon id="Path" points="858.644917 77.485623 990.569504 77.485623 989.812766 371.779553 1020.08227 393.485623 1050.35177 424.025559 1065.73877 439.421725 1065.73877 543.661342 1002.6773 607.01278 989.812766 607.01278 989.56052 710.495208 830.393381 710.495208 812.73617 789.747604 650.54208 789.495208 650.54208 710.242812 660.884161 496.463259 729.495035 471.223642 729.747281 390.456869 808.195745 365.217252 808.447991 94.9009585"></polygon>
            </g>
        </g>
    </g>
</svg>