<?xml version="1.0" encoding="UTF-8"?>
<svg width="1155px" height="884px" viewBox="0 0 1155 884" version="1.1" xmlns="http://www.w3.org/2000/svg" xmlns:xlink="http://www.w3.org/1999/xlink">
    <!-- Generator: Sketch 52.1 (67048) - http://www.bohemiancoding.com/sketch -->
    <title>Artboard Copy 8</title>
    <desc>Created with Sketch.</desc>
    <g id="Artboard-Copy-8" stroke="none" stroke-width="1" fill="none" fill-rule="evenodd">
        <path d="M330.549531,457 L29,457 L29,472.285882 L40.6077644,472.285882 L40.6077644,776.5 L71.3935743,776.5 L71.3935743,798.802353 L40.6077644,798.802353 L40.6077644,883 L224.06091,883 L406,882.749412 L406,568.511765 L330.549531,568.511765 C330.549531,531.424706 330.549531,494.337647 330.549531,457 Z" id="Path" fill="#000000"></path>
        <polygon id="Path" fill="#000000" points="580 2 392.006086 2 251.956929 2 213.601124 57.8420473 191.14279 86.1386901 71.7855805 86.1386901 41 108.425427 41 428.452944 377.622659 457 429.85721 457 433.894663 428.452944 571.420412 428.452944 571.420412 108.425427 580 108.425427"></polygon>
        <polygon id="Path" fill="#000000" points="601.831169 2 786.024119 2 926.313544 2 964.666048 57.8420473 986.87013 86.1386901 1106.21707 86.1386901 1137 108.425427 1137 428.452944 800.406308 457 747.923933 457 747.923933 428.452944 593 428.452944 593 413.177766 610.410019 413.177766 610.410019 108.425427 601.831169 108.425427"></polygon>
        <polygon id="Path" fill="#000000" points="861.641661 457 1149 457 1149 472.285882 1137.38446 472.285882 1137.38446 776.5 1106.57803 776.5 1106.57803 798.551765 1137.38446 798.551765 1137.38446 883 953.808439 883 772 882.749412 772 568.511765 861.641661 568.511765 847.501005 538.441176 847.501005 485.316471"></polygon>
    </g>
</svg>