<?xml version="1.0" encoding="UTF-8"?>
<svg width="1132px" height="883px" viewBox="0 0 1132 883" version="1.1" xmlns="http://www.w3.org/2000/svg" xmlns:xlink="http://www.w3.org/1999/xlink">
    <!-- Generator: Sketch 52.1 (67048) - http://www.bohemiancoding.com/sketch -->
    <title>Artboard Copy 6</title>
    <desc>Created with Sketch.</desc>
    <g id="Artboard-Copy-6" stroke="none" stroke-width="1" fill="none" fill-rule="evenodd">
        <g id="house33" transform="translate(6.000000, 2.000000)" fill="#000000">
            <path d="M301.297189,455 L0,455 L0,470.285882 L11.6077644,470.285882 L11.6077644,774.5 L42.3935743,774.5 L42.3935743,796.802353 L11.6077644,796.802353 L11.6077644,881 L195.06091,881 L377,880.749412 L377,566.511765 L301.549531,566.511765 C301.297189,529.424706 301.297189,492.337647 301.297189,455 Z" id="Path"></path>
            <polygon id="Path" points="551 0 362.657303 0 222.348315 0 183.921348 55.8420473 161.421348 84.1386901 41.8426966 84.1386901 11 106.425427 11 426.452944 348.247191 455 400.578652 455 404.623596 426.452944 542.404494 426.452944 542.404494 106.425427 551 106.425427"></polygon>
            <polygon id="Path" points="572.847403 0 757.378942 0 897.926252 0 936.349258 55.8420473 958.594156 84.1386901 1078.16048 84.1386901 1109 106.425427 1109 426.452944 772.040353 455 719.20872 455 719.20872 426.452944 564 426.452944 564 411.177766 581.442022 411.177766 581.442022 106.425427 572.847403 106.425427"></polygon>
            <polygon id="Path" points="833.641661 455 1121 455 1121 470.285882 1109.38446 470.285882 1109.38446 774.5 1078.57803 774.5 1078.57803 796.551765 1109.38446 796.551765 1109.38446 881 925.808439 881 744 880.749412 744 566.511765 833.641661 566.511765 819.501005 536.441176 819.501005 483.316471"></polygon>
        </g>
    </g>
</svg>