<?xml version="1.0" encoding="UTF-8"?>
<svg width="1183px" height="1076px" viewBox="0 0 1183 1076" version="1.1" xmlns="http://www.w3.org/2000/svg" xmlns:xlink="http://www.w3.org/1999/xlink">
    <!-- Generator: Sketch 52.1 (67048) - http://www.bohemiancoding.com/sketch -->
    <title>Artboard Copy 3</title>
    <desc>Created with Sketch.</desc>
    <g id="Artboard-Copy-3" stroke="none" stroke-width="1" fill="none" fill-rule="evenodd">
        <g id="house21" transform="translate(2.000000, 2.000000)" fill="#000000">
            <polygon id="Path" points="636 1051 112.973859 1051 112.973859 794.08433 94.2128631 794.08433 94.2128631 820.714286 25 819.446193 25 651.297042 94.2128631 651.297042 94.2128631 694.15859 112.973859 694.15859 112.973859 661.188169 399.459336 661.188169 399.459336 648 412.896266 648 412.896266 779.628068 413.656846 779.628068 413.656846 784.700441 458.024066 784.700441 458.024066 765.679043 508.475934 765.679043 508.475934 784.700441 636 784.700441"></polygon>
            <path d="M412.626728,454.789584 L444.562212,454.789584 L444.562212,480.395095 L495,480.395095 L494.746544,480.395095 L494.746544,357.184419 L407.557604,357.184419 L407.557604,352.367541 L412.373272,352.367541 L412.373272,89.9744362 L291.981567,89.9744362 C281.589862,84.6505182 271.451613,81.3547594 262.327189,79.0730802 C243.824885,74.5097218 230.391705,75.0167616 230.391705,75.0167616 C191.866359,75.7773214 158.663594,91.4955557 136.359447,113.805308 C114.308756,135.60802 98.0875576,168.819128 97.5806452,207.861194 C96.8202765,240.818782 112.534562,268.959491 112.534562,268.959491 L112.534562,274.28341 L112.534562,504.733006 L93.7788018,504.733006 L93.7788018,478.873975 L0,478.873975 L0,632 L93.7788018,632 L93.7788018,595.239613 L112.534562,596.760733 L112.534562,628.704241 L412.373272,628.450721 L412.626728,454.789584 Z" id="Path"></path>
            <polygon id="Path" points="978 330.999471 978 89.0957166 925.292351 89.0957166 925.292351 70.0581703 959.755045 70.0581703 959.755045 0 840.909432 0 798.33787 42.3902697 799.351478 43.9132734 799.351478 70.0581703 825.451901 70.0581703 820.130455 89.0957166 444.335054 89.0957166 438 344.198837 451.430314 344.198837 451.430314 330.999471 504.89817 356.6367 504.89817 453.093601 520.355702 454.616605 520.355702 467.562136 534.039418 467.562136 535.306429 454.616605 572.303144 454.616605 572.303144 480 622.983576 480 622.983576 454.616605 681.772877 454.616605 681.772877 356.6367 652.124824 356.6367 652.124824 330.999471"></polygon>
            <polygon id="Path" points="805.954447 454.576966 805.954447 682 1160 682 1160 89.3294819 1115.07809 89.0756616 1115.07809 70.0391353 1160 70.0391353 1160 1 979.29718 1 979.29718 70.0391353 1023.2039 70.0391353 1024.21909 89.0756616 988.687636 89.0756616 988.687636 330.966455 993.509761 330.966455 993.509761 356.602311 692 356.602311 692 454.576966 723.470716 454.576966 723.470716 479.959001 773.976139 479.959001 773.976139 454.576966 801.132321 454.576966"></polygon>
        </g>
    </g>
</svg>