<?xml version="1.0" encoding="UTF-8"?>
<svg width="1007px" height="783px" viewBox="0 0 1007 783" version="1.1" xmlns="http://www.w3.org/2000/svg" xmlns:xlink="http://www.w3.org/1999/xlink">
    <!-- Generator: Sketch 52.1 (67048) - http://www.bohemiancoding.com/sketch -->
    <title>1</title>
    <desc>Created with Sketch.</desc>
    <g id="Page-1" stroke="none" stroke-width="1" fill="none" fill-rule="evenodd">
        <g id="Artboard" transform="translate(-2.000000, -1.000000)" fill="#000000">
            <g id="1" transform="translate(2.000000, 1.000000)">
                <polygon id="Path" points="55.3325859 74 177.0142 74 195.792227 93.0402827 195.792227 364.614841 250.624066 388.164664 262.391629 410.461837 262.141256 460.567845 255.63154 492.385159 330.493274 492.385159 335 783 182.021674 783 162.993274 711.84947 0 711.84947 0 74"></polygon>
                <polygon id="Path" points="231.337181 0 500 0 490.977741 364.439276 346.621599 388 290.984336 388 196 364.439276 196 19.0490956"></polygon>
                <polygon id="Path" points="786.884488 0 518 0 527.029703 364.439276 671.254125 388 727.188119 388 822 364.439276 822 19.0490956"></polygon>
                <polygon id="Path" points="962.431221 74 840.993818 74 821.964451 93.0402827 821.964451 364.614841 767.380216 388.164664 755.361669 410.461837 755.361669 460.567845 762.372488 492.385159 687.506955 492.385159 683 783 835.98609 783 854.76507 711.84947 1007 711.84947 1007 74"></polygon>
            </g>
        </g>
    </g>
</svg>