<?xml version="1.0" encoding="UTF-8"?>
<svg width="1044px" height="940px" viewBox="0 0 1044 940" version="1.1" xmlns="http://www.w3.org/2000/svg" xmlns:xlink="http://www.w3.org/1999/xlink">
    <!-- Generator: Sketch 52.1 (67048) - http://www.bohemiancoding.com/sketch -->
    <title>Artboard Copy 4</title>
    <desc>Created with Sketch.</desc>
    <g id="Artboard-Copy-4" stroke="none" stroke-width="1" fill="none" fill-rule="evenodd">
        <polygon id="Path-2" fill="#000000" fill-rule="nonzero" points="9.671875 883.574219 58.3046875 929.824219 185.792969 929.824219 195.792969 929.824219 195.792969 883.574219 345.625 883.574219 345.625 574.722656 237.542969 574.722656 237.542969 470 9.671875 470"></polygon>
        <polygon id="Path-3" fill="#000000" fill-rule="nonzero" points="12.2734375 464.226562 341.554688 464.226562 341.554688 47.046875 201.949219 47.046875 157.332031 92.5546875 157.332031 118.214844 12.2734375 118.214844"></polygon>
        <polygon id="Path-4" fill="#000000" fill-rule="nonzero" points="340.484375 10.28125 340.484375 463.324219 685.980469 463.324219 685.980469 10.28125"></polygon>
        <polygon id="Path-5" fill="#000000" fill-rule="nonzero" points="691.402344 47.6640625 828.386719 47.6640625 874.847656 93.5742187 874.847656 118.25 1023.51953 118.25 1023.51953 470 763.402344 470 691.402344 470"></polygon>
        <polygon id="Path-6" fill="#000000" fill-rule="nonzero" points="675.855469 576.304688 792.878906 576.304688 792.878906 470 1026.16406 470 1026.16406 877.039063 975.585937 929.28125 834.097656 929.28125 834.097656 885.796875 675.855469 885.796875"></polygon>
    </g>
</svg>