<?xml version="1.0" encoding="UTF-8"?>
<svg width="1003px" height="786px" viewBox="0 0 1003 786" version="1.1" xmlns="http://www.w3.org/2000/svg" xmlns:xlink="http://www.w3.org/1999/xlink">
    <!-- Generator: Sketch 52.1 (67048) - http://www.bohemiancoding.com/sketch -->
    <title>house2</title>
    <desc>Created with Sketch.</desc>
    <g id="Page-1" stroke="none" stroke-width="1" fill="none" fill-rule="evenodd">
        <g id="Artboard-Copy" transform="translate(0.000000, -1.000000)" fill="#000000">
            <g id="house2">
                <polygon id="Path" points="42.4443325 75.1188498 165.229723 75.1188498 184.178086 94.2766773 184.178086 367.527796 239.507305 391.223003 251.381612 413.657827 251.128967 464.073163 244.560202 496.086901 320.101008 496.086901 324.648615 788.495847 170.28262 788.495847 151.081612 716.90607 0 716.90607 0 75.1188498"></polygon>
                <polygon id="Path" points="219.801008 1.00830671 490.636272 1.00830671 496.699748 367.527796 336.017632 391.223003 279.930479 391.223003 184.178086 367.527796 184.178086 20.1661342"></polygon>
                <polygon id="Path" points="780.419899 1.00830671 509.584635 1.00830671 518.679849 367.527796 663.95063 391.223003 720.290428 391.223003 815.790176 367.527796 815.790176 20.1661342"></polygon>
                <polygon id="Path" points="957.523929 75.1188498 834.991184 75.1188498 815.790176 94.2766773 815.790176 367.527796 760.713602 391.223003 748.58665 413.657827 748.58665 464.073163 755.660705 496.086901 680.119899 496.086901 675.572292 788.495847 829.938287 788.495847 848.88665 716.90607 1002.49471 716.90607 1002.49471 75.1188498"></polygon>
            </g>
        </g>
    </g>
</svg>