<?xml version="1.0" encoding="UTF-8"?>
<svg width="1044px" height="940px" viewBox="0 0 1044 940" version="1.1" xmlns="http://www.w3.org/2000/svg" xmlns:xlink="http://www.w3.org/1999/xlink">
    <!-- Generator: Sketch 52.1 (67048) - http://www.bohemiancoding.com/sketch -->
    <title>Artboard</title>
    <desc>Created with Sketch.</desc>
    <g id="Artboard" stroke="none" stroke-width="1" fill="none" fill-rule="evenodd">
        <polygon id="Path" fill="#000000" points="38.9915902 478.86087 38.9915902 466 25.3264526 466 19 839.469566 51.3914373 839.469566 51.3914373 858.382609 19 858.382609 19 884.104348 61.0076453 930 187.789755 930 187.789755 859.895653 187.789755 858.382609 141.480122 858.382609 141.480122 839.469566 206.769113 839.469566 207.781346 877.295652 350 877.295652 350 582.756522 206.769113 582.756522 206.769113 587.547826 201.961009 587.547826 201.961009 557.286957 233.593272 557.286957 233.593272 550.982609 246.246177 550.982609 246.246177 500.8 233.593272 500.8 233.593272 478.86087"></polygon>
        <polygon id="Path" fill="#000000" points="198.116788 134.466822 198.116788 115.389406 164.96837 115.389406 164.96837 89.4441212 203.93674 49 334 49 334 115.389406 288.452555 115.389406 288.452555 134.466822 334 134.466822 334 460.563446 320.841849 460.563446 320.841849 486 270.486618 486 270.486618 460.563446 22 460.563446 22 134.466822 59.9562044 134.466822"></polygon>
        <polygon id="Path" fill="#000000" points="682.421212 380.441113 682.421212 100.304069 637.381818 100.304069 637.381818 81.2730193 689 81.2730193 689 12 355 12 355 81.2730193 406.871212 81.2730193 406.871212 100.304069 361.325758 100.304069 361.325758 460.625268 445.331818 460.625268 445.837879 473.566381 459.248485 473.566381 459.501515 460.625268 522 460.625268 522 486 572.859091 486 572.859091 460.625268 682.421212 460.625268 682.421212 385.262313"></polygon>
        <polygon id="Path" fill="#000000" points="1014 460.563446 1014 134.466822 976.296837 134.466822 837.883212 134.466822 837.883212 115.389406 871.03163 115.389406 871.03163 89.4441212 832.06326 49 702 49 702 115.389406 747.547445 115.389406 747.547445 134.466822 702 134.466822 702 460.563446 715.158151 460.563446 715.158151 486 765.513382 486 765.513382 460.563446"></polygon>
        <polygon id="Path" fill="#000000" points="832.483945 840.25 831.218654 877.75 689 877.75 689 585.750001 832.483945 585.750001 832.483945 590.5 837.292049 590.5 837.292049 560.500001 805.406728 560.500001 805.406728 554.25 793.006881 554.25 793.006881 504.5 805.406728 504.5 805.406728 482.75 1000.00841 482.75 1000.00841 470 1013.67355 470 1013.67355 592.500001 1020 597.5 1020 840.25 987.608563 840.25 987.608563 859 1020 859 1020 885 978.245413 930 851.210245 930 851.210245 860.5 851.210245 859 897.772936 859 897.772936 840.25"></polygon>
    </g>
</svg>