<?xml version="1.0" encoding="UTF-8"?>
<svg width="998px" height="794px" viewBox="0 0 998 794" version="1.1" xmlns="http://www.w3.org/2000/svg" xmlns:xlink="http://www.w3.org/1999/xlink">
    <!-- Generator: Sketch 52.1 (67048) - http://www.bohemiancoding.com/sketch -->
    <title>house6</title>
    <desc>Created with Sketch.</desc>
    <g id="Page-1" stroke="none" stroke-width="1" fill="none" fill-rule="evenodd">
        <g id="Artboard-Copy-4" transform="translate(-1.000000, 0.000000)" fill="#000000">
            <g id="house6" transform="translate(0.000000, -6.000000)">
                <polygon id="Path" points="252.030457 420.529968 251.77665 466.747634 256.598985 505.09306 327.918782 505.09306 327.664975 704.438486 337.817259 722.214511 337.817259 802.714511 162.690355 802.460568 144.923858 721.960568 101.77665 721.706625 25.6345178 721.706625 1.77664975 703.930599 2.53807107 95.4826498 2.79187817 2.28548896 163.705584 2.53943218 181.725888 20.3154574 181.218274 371.518927 234.010152 397.167192"></polygon>
                <polygon id="Path" points="217.51269 2.53943218 357.106599 2.79337539 497.715736 3.04731861 494.923858 79.7381703 485.279188 373.042587 330.456853 397.421136 278.172589 397.421136 181.218274 371.518927 181.725888 97.0063091 181.725888 20.3154574"></polygon>
                <polygon id="Path" points="745.177665 421.291798 745.177665 467.509464 740.101523 505.85489 672.335025 505.600946 671.827411 704.946372 661.675127 722.722397 661.42132 803.222397 836.80203 803.476341 844.162437 722.976341 887.563452 722.976341 963.451777 723.230284 998.984772 713.326498 997.715736 374.312303 998.984772 3.80914826 827.918782 3.55520505 809.64467 21.3312303 809.137056 372.5347 756.345178 398.182965"></polygon>
                <polygon id="Path" points="777.918782 3.30126183 638.324873 3.30126183 497.715736 3.04731861 506.598985 79.7381703 513.959391 373.29653 663.705584 397.929022 715.989848 397.929022 821.06599 372.026814 820.304569 98.7839117 821.573604 21.3312303"></polygon>
            </g>
        </g>
    </g>
</svg>