<?xml version="1.0" encoding="UTF-8"?>
<svg width="1117px" height="881px" viewBox="0 0 1117 881" version="1.1" xmlns="http://www.w3.org/2000/svg" xmlns:xlink="http://www.w3.org/1999/xlink">
    <!-- Generator: Sketch 52.1 (67048) - http://www.bohemiancoding.com/sketch -->
    <title>house34</title>
    <desc>Created with Sketch.</desc>
    <g id="Page-1" stroke="none" stroke-width="1" fill="none" fill-rule="evenodd">
        <g id="Artboard-Copy-5" transform="translate(-18.000000, -2.000000)" fill="#000000">
            <g id="house34" transform="translate(18.000000, 2.000000)">
                <polygon id="Path" points="199.62336 104.797802 166.060587 83 46.587133 83 14.2767021 104.797802 14.2767021 429.008791 0 463.835165 14.2767021 881 197.870081 881 379.209244 881 401 812.850549 372.196127 569.316484 337.130543 558.041758 286.786384 541.004396 286.786384 485.632967 286.786384 457.571429 199.62336 428.507692"></polygon>
                <polygon id="Path" points="551 0 364.364389 0 227.331263 0 188 58.1269147 188 83.4321663 208.291925 105.229759 208.291925 428.936543 348.080745 458 401.942029 458 449.039337 429.437637 542.983437 429.437637 551 83.4321663"></polygon>
                <polygon id="Path" points="566 0 752.635611 0 889.919255 0 929 58.1269147 929 83.4321663 908.708075 105.229759 908.708075 428.936543 768.919255 458 715.057971 458 667.960663 429.437637 574.016563 429.437637 566 83.4321663"></polygon>
                <polygon id="Path" points="917.251875 104.797802 950.835625 83 1070.38375 83 1102.71438 104.797802 1102.71438 429.008791 1117 463.835165 1102.71438 881 919.00625 881 737.804375 881 716 812.850549 744.57125 569.316484 779.909375 558.041758 830.285 541.004396 830.285 485.632967 830.285 457.571429 917.251875 428.507692"></polygon>
            </g>
        </g>
    </g>
</svg>