<?xml version="1.0" encoding="UTF-8"?>
<svg width="1509px" height="974px" viewBox="0 0 1509 974" version="1.1" xmlns="http://www.w3.org/2000/svg" xmlns:xlink="http://www.w3.org/1999/xlink">
    <!-- Generator: Sketch 52.1 (67048) - http://www.bohemiancoding.com/sketch -->
    <title>house3</title>
    <desc>Created with Sketch.</desc>
    <g id="Page-1" stroke="none" stroke-width="1" fill="none" fill-rule="evenodd">
        <g id="Artboard-Copy-2" transform="translate(0.000000, -1.000000)" fill="#000000">
            <g id="house3">
                <polygon id="Path" points="477.873544 816.510797 531.640599 816.510797 551.489185 828.817481 544.454243 762.763239 764.044925 762.763239 783.642263 831.580206 783.642263 907.429563 783.642263 974.990746 71.1031614 974.990746 71.1031614 822.789717"></polygon>
                <polygon id="Path" points="71.1031614 480.211825 71.1031614 676.616452 71.1031614 802.948329 145.472546 802.948329 429.131448 796.669409 461.039933 662.802828 461.039933 614.329563 429.131448 480.211825"></polygon>
                <polygon id="Path" points="176.627288 74.3424165 176.627288 1.50694087 331.144759 1.50694087 335.667221 79.1143959 323.607321 381.004884 222.605657 407.627506 174.617304 407.627506 20.0998336 381.004884 9.29617304 266.226221 0.25124792 266.226221 0.25124792 171.79126 0.25124792 74.3424165 8.7936772 74.3424165 100.750416 74.3424165"></polygon>
                <polygon id="Path" points="350.742097 1.50694087 498.727121 1.50694087 518.575707 74.3424165 553.24792 74.3424165 627.617304 74.3424165 652.993344 94.1838046 652.993344 381.004884 526.615641 407.627506 473.853577 407.627506 358.279534 381.004884 350.742097 74.3424165"></polygon>
                <polygon id="Path" points="660.028286 380.502571 817.309484 407.627506 865.046589 407.627506 965.797005 381.004884 965.797005 94.1838046 973.334443 74.3424165 973.334443 1.50694087 818.816972 1.50694087 798.968386 74.3424165 659.274542 74.3424165"></polygon>
                <polygon id="Path" points="1303.47421 380.502571 1146.44426 407.627506 1100.46589 407.627506 997.705491 381.004884 997.705491 94.1838046 990.168053 74.3424165 990.168053 1.50694087 1144.68552 1.50694087 1164.53411 74.3424165 1304.4792 74.3424165"></polygon>
                <polygon id="Path" points="1304.22795 94.9372751 1368.29617 74.3424165 1443.67055 74.3424165 1502.21131 94.1838046 1508.24126 502.564781 1508.74376 744.679949 1322.56905 744.679949 1333.37271 653.258869 1286.89185 673.100257 1144.18303 673.100257 1144.18303 612.320308 1164.03161 474.937532 1194.43261 474.937532 1194.43261 470.41671 1194.43261 421.189974 1208.75374 407.627506 1304.22795 381.004884"></polygon>
            </g>
        </g>
    </g>
</svg>