<svg xmlns="http://www.w3.org/2000/svg" xmlns:xlink="http://www.w3.org/1999/xlink" x="0px" y="0px" viewBox="0 0 841.9 595.3"> <g>
    <polygon class="flat__area purple" points="228.4,302.1 228.4,297 223,297 220.5,445.1 233.3,445.1 233.3,452.6 220.5,452.6 220.5,462.8 237.1,481 287.2,481 287.2,453.2 287.2,452.6 268.9,452.6 268.9,445.1 294.7,445.1 295.1,460.1 351.3,460.1 351.3,343.3 294.7,343.3 294.7,345.2 292.8,345.2 292.8,333.2 305.3,333.2 305.3,330.7 310.3,330.7 310.3,310.8 305.3,310.8 305.3,302.1 "></polygon> </g> <a xlink:href="https://evromisto.ua/kvartiry-kiev/#"> <polygon class="flat__area yellow" points="292.6,163.9 292.6,156.4 279.5,156.4 279.5,146.2 294.9,130.3 346.3,130.3 346.3,156.4 328.3,156.4 328.3,163.9 346.3,163.9 346.3,292.1 341.1,292.1 341.1,302.1 321.2,302.1 321.2,292.1 223,292.1 223,163.9 238,163.9 "></polygon> </a> <g> <polygon class="flat__area green" points="483.2,260.5 483.2,150.1 465.4,150.1 465.4,142.6 485.8,142.6 485.8,115.3 353.8,115.3 353.8,142.6 374.3,142.6 374.3,150.1 356.3,150.1 356.3,292.1 389.5,292.1 389.7,297.2 395,297.2 395.1,292.1 419.8,292.1 419.8,302.1 439.9,302.1 439.9,292.1 483.2,292.1 483.2,262.4 "></polygon> </g> <a xlink:href="https://evromisto.ua/kvartiry-kiev/#"> <polygon class="flat__area blue" points="616.5,292.1 616.5,163.9 601.6,163.9 546.9,163.9 546.9,156.4 560,156.4 560,146.2 544.6,130.3 493.2,130.3 493.2,156.4 511.2,156.4 511.2,163.9 493.2,163.9 493.2,292.1 498.4,292.1 498.4,302.1 518.3,302.1 518.3,292.1 "></polygon> </a> <a xlink:href="https://evromisto.ua/kvartiry-kiev/#1302"> <polygon class="flat__area purple" points="545,445.1 544.5,460.1 488.3,460.1 488.3,343.3 545,343.3 545,345.2 546.9,345.2 546.9,333.2 534.3,333.2 534.3,330.7 529.4,330.7 529.4,310.8 534.3,310.8 534.3,302.1 611.2,302.1 611.2,297 616.6,297 616.6,346 619.1,348 619.1,445.1 606.3,445.1 606.3,452.6 619.1,452.6 619.1,463 602.6,481 552.4,481 552.4,453.2 552.4,452.6 570.8,452.6 570.8,445.1 "></polygon> </a> </svg>