<?xml version="1.0" encoding="UTF-8"?>
<svg width="1585px" height="746px" viewBox="0 0 1585 746" version="1.1" xmlns="http://www.w3.org/2000/svg" xmlns:xlink="http://www.w3.org/1999/xlink">
    <!-- Generator: Sketch 52.1 (67048) - http://www.bohemiancoding.com/sketch -->
    <title>house4</title>
    <desc>Created with Sketch.</desc>
    <g id="Page-1" stroke="none" stroke-width="1" fill="none" fill-rule="evenodd">
        <g id="Artboard-Copy-3" transform="translate(0.000000, -2.000000)" fill="#000000">
            <g id="house4">
                <polygon id="Path" points="32.6511962 77.2190635 112.633971 77.2190635 148.575598 97.9795987 148.575598 407.10903 262.22201 407.10903 262.22201 489.138462 246.782297 489.138462 246.782297 500.784615 461.166507 500.784615 461.166507 661.805351 358.150718 682.565886 250.325837 682.565886 178.695694 682.565886 157.94067 755.227759 0.506220096 753.202341 0.506220096 97.9795987"></polygon>
                <polygon id="Path" points="180.467464 77.2190635 158.95311 97.9795987 158.95311 386.348495 304.997608 407.10903 358.150718 407.10903 452.560766 386.348495 452.560766 97.9795987 462.938278 77.2190635 462.938278 2.27859532 311.072249 2.27859532 290.317225 77.2190635 252.350718 77.2190635"></polygon>
                <polygon id="Path" points="792.99378 97.9795987 765.657895 77.2190635 656.820574 77.2190635 636.06555 2.27859532 483.693301 2.27859532 483.693301 77.2190635 494.070813 97.9795987 494.070813 386.348495 588.480861 407.10903 638.090431 407.10903 792.99378 386.348495"></polygon>
                <polygon id="Path" points="803.371292 97.9795987 825.138756 77.2190635 933.976077 77.2190635 954.7311 2.27859532 1106.85024 2.27859532 1106.85024 77.2190635 1096.72584 97.9795987 1096.72584 386.348495 1002.31579 407.10903 952.70622 407.10903 803.371292 386.348495"></polygon>
                <polygon id="Path" points="1412.10096 77.2190635 1433.61531 97.9795987 1433.61531 386.348495 1287.57081 407.10903 1234.4177 407.10903 1137.98278 386.348495 1140.00766 97.9795987 1127.85837 77.2190635 1129.63014 2.27859532 1281.49617 2.27859532 1302.2512 77.2190635 1340.2177 77.2190635"></polygon>
                <polygon id="Path" points="1552.32392 77.2190635 1472.34115 77.2190635 1436.65263 97.9795987 1436.65263 407.10903 1330.34641 407.10903 1330.59952 489.138462 1338.19282 489.138462 1338.19282 500.784615 1119.75885 509.898997 1119.75885 661.805351 1226.8244 682.565886 1334.64928 682.565886 1406.27943 682.565886 1427.03445 755.227759 1584.4689 755.480936 1584.4689 97.9795987"></polygon>
            </g>
        </g>
    </g>
</svg>