<?xml version="1.0" encoding="UTF-8"?>
<svg width="1012px" height="883px" viewBox="0 0 1012 883" version="1.1" xmlns="http://www.w3.org/2000/svg" xmlns:xlink="http://www.w3.org/1999/xlink">
    <!-- Generator: Sketch 52.1 (67048) - http://www.bohemiancoding.com/sketch -->
    <title>house32</title>
    <desc>Created with Sketch.</desc>
    <g id="Page-1" stroke="none" stroke-width="1" fill="none" fill-rule="evenodd">
        <g id="Artboard-Copy-7" transform="translate(-2.000000, -1.000000)" fill="#000000">
            <g id="house32" transform="translate(2.000000, 1.000000)">
                <polygon id="Path" points="128.5 87 44.75 87 24 111.022634 0 164.57309 24 883 368 880.998114 368 547.684062 278 547.684062 278 463.604841 193.5 430.323483 193.5 111.022634 171.75 87"></polygon>
                <polygon id="Path" points="496 0 331.620663 0 225.876638 0 171 58.5632432 171 87.0940541 199.315343 110.86973 199.315343 429.714054 325.356207 463 368.706245 463 490.2367 429.714054"></polygon>
                <polygon id="Path" points="516 0 680.252696 0 785.915254 0 841 58.5632432 841 87.0940541 812.456086 110.86973 812.456086 429.714054 686.762712 463 643.446071 463 522.009245 429.714054"></polygon>
                <polygon id="Path" points="883.5 87 967.25 87 988 111.022634 1012 164.57309 988 883 644 880.998114 644 547.684062 734 547.684062 734 463.604841 818.5 430.323483 818.5 111.022634 840.5 87"></polygon>
            </g>
        </g>
    </g>
</svg>