<?xml version="1.0" encoding="UTF-8"?>
<svg width="1060px" height="851px" viewBox="0 0 1060 851" version="1.1" xmlns="http://www.w3.org/2000/svg" xmlns:xlink="http://www.w3.org/1999/xlink">
    <!-- Generator: Sketch 52.1 (67048) - http://www.bohemiancoding.com/sketch -->
    <title>house23</title>
    <desc>Created with Sketch.</desc>
    <g id="Page-1" stroke="none" stroke-width="1" fill="none" fill-rule="evenodd">
        <g id="Artboard-Copy" fill="#000000">
            <g id="house23">
                <polygon id="Path" points="127.42402 760.418293 127.42402 780.182927 173.712745 780.182927 173.712745 850.919512 1.3002451 850.919512 1.3002451 780.182927 34.8465686 780.182927 34.8465686 760.418293 1.3002451 760.418293 0.780147059 108.185366 150.308333 108.185366 150.308333 395.812805 258.748775 395.812805 258.748775 415.577439 271.751225 415.577439 271.751225 467.329573 258.748775 467.329573 258.748775 498.276829 221.041667 498.276829 221.041667 503.217988 350.664216 503.217988 350.664216 795.786585 193.216422 795.786585 193.216422 760.418293"></polygon>
                <polygon id="Path" points="303.997304 380.546646 160.450245 380.546646 160.450245 111.306098 160.450245 107.925305 177.093382 107.925305 177.093382 88.6807927 138.606127 87.6405488 137.305882 61.6344512 178.653676 20.5448171 312.318873 20.5448171 312.318873 87.1204268 270.190931 88.6807927 270.190931 107.925305 303.997304 107.925305 309.458333 107.925305 331.5625 107.925305 331.5625 0.260060976 502.154657 0.260060976 502.154657 234.835061 502.154657 240.816463 501.894608 380.546646 416.33848 380.546646 409.577206 380.546646 398.395098 380.546646 398.395098 395.812805 346.645343 395.812805 343.784804 380.546646 309.458333 380.546646"></polygon>
                <polygon id="Path" points="705.773039 107.925305 705.773039 0.260060976 534.920833 0.260060976 534.920833 381.546646 638.940441 381.546646 638.940441 395.812805 690.690196 395.812805 693.290686 381.546646 894.828676 381.546646 894.828676 111.306098 894.828676 107.925305 860.242157 107.925305 860.242157 88.6807927 898.469363 87.6405488 899.769608 61.6344512 858.681863 20.5448171 725.016667 20.5448171 725.016667 87.1204268 767.144608 88.6807927 767.144608 107.925305"></polygon>
                <polygon id="Path" points="916.412745 760.418293 916.412745 780.182927 863.362745 780.182927 863.362745 850.919512 1058.65956 850.919512 1058.65956 780.182927 1019.13211 780.182927 1019.13211 760.418293 1058.65956 760.418293 1059.17966 108.185366 904.970588 108.185366 904.970588 369.546646 909.391422 370.846951 909.91152 395.812805 778.326716 395.812805 776.766422 415.577439 765.324265 415.577439 765.324265 467.329573 778.326716 467.329573 778.326716 498.276829 818.374265 498.276829 818.374265 503.217988 696.671324 503.217988 696.671324 795.786585 843.859069 795.786585 843.859069 760.418293"></polygon>
            </g>
        </g>
    </g>
</svg>