<svg version="1.1" id="Layer_1" xmlns="http://www.w3.org/2000/svg" xmlns:xlink="http://www.w3.org/1999/xlink" x="0px" y="0px"
	 viewBox="0 0 64 64" style="enable-background:new 0 0 64 64;" xml:space="preserve">
<path fill="#ffffff" d="M40,28c0,1.1-0.9,2-2,2h-8v8c0,1.1-0.9,2-2,2h-4c-1.1,0-2-0.9-2-2v-8h-8c-1.1,0-2-0.9-2-2v-4c0-1.1,0.9-2,2-2h8v-8
	c0-1.1,0.9-2,2-2h4c1.1,0,2,0.9,2,2v8h8c1.1,0,2,0.9,2,2V28z M47.6,40.5c7.5-11.1,5.3-26.1-5.1-34.6C32.2-2.6,17.1-1.8,7.6,7.6
	S-2.6,32.2,5.9,42.5S29.4,55,40.5,47.6l15,15c2,1.9,5.1,1.9,7-0.1c1.9-1.9,2-5,0.1-7L47.6,40.5z"/>
</svg>
